<mxfile host="65bd71144e">
    <diagram id="0FMMelTUF6j1pL1O_twX" name="Landing-page">
        <mxGraphModel dx="1245" dy="890" grid="1" gridSize="10" guides="1" tooltips="1" connect="1" arrows="1" fold="1" page="1" pageScale="1" pageWidth="1600" pageHeight="1200" math="0" shadow="0">
            <root>
                <mxCell id="0"/>
                <mxCell id="1" parent="0"/>
                <mxCell id="xIm1bSaZW-YQx07dGLlk-2" value="" style="swimlane;whiteSpace=wrap;html=1;startSize=90;" parent="1" vertex="1">
                    <mxGeometry width="1600" height="1210" as="geometry"/>
                </mxCell>
                <mxCell id="xIm1bSaZW-YQx07dGLlk-6" value="Search" style="strokeWidth=1;shadow=1;dashed=0;align=center;html=1;shape=mxgraph.mockup.forms.searchBox;strokeColor=#23445d;mainText=;strokeColor2=#008cff;fontSize=17;align=left;spacingLeft=3;fillColor=#BAC8D3;opacity=30;" parent="xIm1bSaZW-YQx07dGLlk-2" vertex="1">
                    <mxGeometry x="80" y="210" width="640" height="70" as="geometry"/>
                </mxCell>
                <mxCell id="xIm1bSaZW-YQx07dGLlk-7" value="" style="rounded=1;whiteSpace=wrap;html=1;shadow=1;strokeColor=none;" parent="xIm1bSaZW-YQx07dGLlk-2" vertex="1">
                    <mxGeometry x="80" y="370" width="640" height="150" as="geometry"/>
                </mxCell>
                <mxCell id="xIm1bSaZW-YQx07dGLlk-8" value="" style="rounded=1;whiteSpace=wrap;html=1;shadow=1;strokeColor=none;" parent="xIm1bSaZW-YQx07dGLlk-2" vertex="1">
                    <mxGeometry x="80" y="540" width="640" height="150" as="geometry"/>
                </mxCell>
                <mxCell id="xIm1bSaZW-YQx07dGLlk-9" value="" style="rounded=1;whiteSpace=wrap;html=1;shadow=1;strokeColor=none;" parent="xIm1bSaZW-YQx07dGLlk-2" vertex="1">
                    <mxGeometry x="80" y="710" width="640" height="150" as="geometry"/>
                </mxCell>
                <mxCell id="xIm1bSaZW-YQx07dGLlk-10" value="" style="rounded=1;whiteSpace=wrap;html=1;shadow=1;strokeColor=none;" parent="xIm1bSaZW-YQx07dGLlk-2" vertex="1">
                    <mxGeometry x="80" y="880" width="640" height="150" as="geometry"/>
                </mxCell>
                <mxCell id="xIm1bSaZW-YQx07dGLlk-11" value="" style="rounded=1;whiteSpace=wrap;html=1;fillColor=#ffe6cc;strokeColor=#d79b00;" parent="xIm1bSaZW-YQx07dGLlk-2" vertex="1">
                    <mxGeometry x="80" y="540" width="160" height="150" as="geometry"/>
                </mxCell>
                <mxCell id="xIm1bSaZW-YQx07dGLlk-12" value="" style="rounded=1;whiteSpace=wrap;html=1;fillColor=#fff2cc;strokeColor=#d6b656;" parent="xIm1bSaZW-YQx07dGLlk-2" vertex="1">
                    <mxGeometry x="80" y="370" width="160" height="150" as="geometry"/>
                </mxCell>
                <mxCell id="xIm1bSaZW-YQx07dGLlk-13" value="" style="rounded=1;whiteSpace=wrap;html=1;fillColor=#e1d5e7;strokeColor=#9673a6;" parent="xIm1bSaZW-YQx07dGLlk-2" vertex="1">
                    <mxGeometry x="80" y="710" width="160" height="150" as="geometry"/>
                </mxCell>
                <mxCell id="xIm1bSaZW-YQx07dGLlk-14" value="" style="rounded=1;whiteSpace=wrap;html=1;fillColor=#d5e8d4;strokeColor=#82b366;shadow=0;" parent="xIm1bSaZW-YQx07dGLlk-2" vertex="1">
                    <mxGeometry x="80" y="880" width="160" height="150" as="geometry"/>
                </mxCell>
                <mxCell id="xIm1bSaZW-YQx07dGLlk-15" value="&lt;b&gt;&lt;font color=&quot;#666666&quot; style=&quot;font-size: 20px;&quot;&gt;Location Name&lt;/font&gt;&lt;/b&gt;" style="text;html=1;strokeColor=none;fillColor=none;align=center;verticalAlign=middle;whiteSpace=wrap;rounded=0;" parent="xIm1bSaZW-YQx07dGLlk-2" vertex="1">
                    <mxGeometry x="270" y="390" width="150" height="30" as="geometry"/>
                </mxCell>
                <mxCell id="xIm1bSaZW-YQx07dGLlk-16" value="&lt;b&gt;&lt;font color=&quot;#666666&quot; style=&quot;font-size: 20px;&quot;&gt;Location Name&lt;/font&gt;&lt;/b&gt;" style="text;html=1;strokeColor=none;fillColor=none;align=center;verticalAlign=middle;whiteSpace=wrap;rounded=0;" parent="xIm1bSaZW-YQx07dGLlk-2" vertex="1">
                    <mxGeometry x="270" y="560" width="150" height="30" as="geometry"/>
                </mxCell>
                <mxCell id="xIm1bSaZW-YQx07dGLlk-17" value="&lt;b&gt;&lt;font color=&quot;#666666&quot; style=&quot;font-size: 20px;&quot;&gt;Location Name&lt;/font&gt;&lt;/b&gt;" style="text;html=1;strokeColor=none;fillColor=none;align=center;verticalAlign=middle;whiteSpace=wrap;rounded=0;" parent="xIm1bSaZW-YQx07dGLlk-2" vertex="1">
                    <mxGeometry x="270" y="730" width="150" height="30" as="geometry"/>
                </mxCell>
                <mxCell id="xIm1bSaZW-YQx07dGLlk-18" value="&lt;b&gt;&lt;font color=&quot;#666666&quot; style=&quot;font-size: 20px;&quot;&gt;Location Name&lt;/font&gt;&lt;/b&gt;" style="text;html=1;strokeColor=none;fillColor=none;align=center;verticalAlign=middle;whiteSpace=wrap;rounded=0;" parent="xIm1bSaZW-YQx07dGLlk-2" vertex="1">
                    <mxGeometry x="280" y="900" width="150" height="30" as="geometry"/>
                </mxCell>
                <mxCell id="xIm1bSaZW-YQx07dGLlk-21" value="" style="rounded=1;whiteSpace=wrap;html=1;shadow=1;strokeColor=none;" parent="xIm1bSaZW-YQx07dGLlk-2" vertex="1">
                    <mxGeometry x="80" y="1050" width="640" height="150" as="geometry"/>
                </mxCell>
                <mxCell id="xIm1bSaZW-YQx07dGLlk-22" value="" style="rounded=1;whiteSpace=wrap;html=1;fillColor=#d5e8d4;strokeColor=#82b366;shadow=0;" parent="xIm1bSaZW-YQx07dGLlk-2" vertex="1">
                    <mxGeometry x="80" y="1050" width="160" height="150" as="geometry"/>
                </mxCell>
                <mxCell id="xIm1bSaZW-YQx07dGLlk-23" value="&lt;font color=&quot;#666666&quot; style=&quot;font-size: 22px;&quot;&gt;Location Name&lt;/font&gt;" style="text;html=1;strokeColor=none;fillColor=none;align=center;verticalAlign=middle;whiteSpace=wrap;rounded=0;" parent="xIm1bSaZW-YQx07dGLlk-2" vertex="1">
                    <mxGeometry x="257.5" y="1070" width="195" height="30" as="geometry"/>
                </mxCell>
                <mxCell id="xIm1bSaZW-YQx07dGLlk-27" value="" style="dashed=0;aspect=fixed;verticalLabelPosition=bottom;verticalAlign=top;align=center;shape=mxgraph.gmdl.navigate;strokeColor=none;fillColor=#737373;shadow=0;sketch=0;rounded=1;fontSize=22;fontColor=#666666;opacity=30;" parent="xIm1bSaZW-YQx07dGLlk-2" vertex="1">
                    <mxGeometry x="280" y="940" width="30" height="30" as="geometry"/>
                </mxCell>
                <mxCell id="xIm1bSaZW-YQx07dGLlk-29" value="" style="dashed=0;aspect=fixed;verticalLabelPosition=bottom;verticalAlign=top;align=center;shape=mxgraph.gmdl.navigate;strokeColor=none;fillColor=#737373;shadow=0;sketch=0;rounded=1;fontSize=22;fontColor=#666666;opacity=30;" parent="xIm1bSaZW-YQx07dGLlk-2" vertex="1">
                    <mxGeometry x="270" y="770" width="30" height="30" as="geometry"/>
                </mxCell>
                <mxCell id="xIm1bSaZW-YQx07dGLlk-30" value="" style="dashed=0;aspect=fixed;verticalLabelPosition=bottom;verticalAlign=top;align=center;shape=mxgraph.gmdl.navigate;strokeColor=none;fillColor=#737373;shadow=0;sketch=0;rounded=1;fontSize=22;fontColor=#666666;opacity=30;" parent="xIm1bSaZW-YQx07dGLlk-2" vertex="1">
                    <mxGeometry x="270" y="430" width="30" height="30" as="geometry"/>
                </mxCell>
                <mxCell id="xIm1bSaZW-YQx07dGLlk-31" value="" style="dashed=0;aspect=fixed;verticalLabelPosition=bottom;verticalAlign=top;align=center;shape=mxgraph.gmdl.navigate;strokeColor=none;fillColor=#737373;shadow=0;sketch=0;rounded=1;fontSize=22;fontColor=#666666;opacity=30;" parent="xIm1bSaZW-YQx07dGLlk-2" vertex="1">
                    <mxGeometry x="270" y="600" width="30" height="30" as="geometry"/>
                </mxCell>
                <mxCell id="xIm1bSaZW-YQx07dGLlk-32" value="" style="dashed=0;aspect=fixed;verticalLabelPosition=bottom;verticalAlign=top;align=center;shape=mxgraph.gmdl.health;strokeColor=none;fillColor=#737373;shadow=0;sketch=0;rounded=1;fontSize=22;fontColor=#666666;opacity=30;" parent="xIm1bSaZW-YQx07dGLlk-2" vertex="1">
                    <mxGeometry x="370" y="770" width="33.33" height="30" as="geometry"/>
                </mxCell>
                <mxCell id="xIm1bSaZW-YQx07dGLlk-33" value="" style="dashed=0;aspect=fixed;verticalLabelPosition=bottom;verticalAlign=top;align=center;shape=mxgraph.gmdl.health;strokeColor=none;fillColor=#737373;shadow=0;sketch=0;rounded=1;fontSize=22;fontColor=#666666;opacity=30;" parent="xIm1bSaZW-YQx07dGLlk-2" vertex="1">
                    <mxGeometry x="370" y="600" width="33.33" height="30" as="geometry"/>
                </mxCell>
                <mxCell id="xIm1bSaZW-YQx07dGLlk-34" value="" style="dashed=0;aspect=fixed;verticalLabelPosition=bottom;verticalAlign=top;align=center;shape=mxgraph.gmdl.health;strokeColor=none;fillColor=#737373;shadow=0;sketch=0;rounded=1;fontSize=22;fontColor=#666666;opacity=30;" parent="xIm1bSaZW-YQx07dGLlk-2" vertex="1">
                    <mxGeometry x="370" y="430" width="33.33" height="30" as="geometry"/>
                </mxCell>
                <mxCell id="xIm1bSaZW-YQx07dGLlk-35" value="" style="dashed=0;aspect=fixed;verticalLabelPosition=bottom;verticalAlign=top;align=center;shape=mxgraph.gmdl.health;strokeColor=none;fillColor=#737373;shadow=0;sketch=0;rounded=1;fontSize=22;fontColor=#666666;opacity=30;" parent="xIm1bSaZW-YQx07dGLlk-2" vertex="1">
                    <mxGeometry x="370" y="940" width="33.33" height="30" as="geometry"/>
                </mxCell>
                <mxCell id="xIm1bSaZW-YQx07dGLlk-36" value="" style="dashed=0;aspect=fixed;verticalLabelPosition=bottom;verticalAlign=top;align=center;shape=mxgraph.gmdl.family;strokeColor=none;fillColor=#737373;shadow=0;sketch=0;rounded=1;fontSize=22;fontColor=#666666;opacity=30;" parent="xIm1bSaZW-YQx07dGLlk-2" vertex="1">
                    <mxGeometry x="460" y="940" width="30" height="30" as="geometry"/>
                </mxCell>
                <mxCell id="xIm1bSaZW-YQx07dGLlk-37" value="" style="dashed=0;aspect=fixed;verticalLabelPosition=bottom;verticalAlign=top;align=center;shape=mxgraph.gmdl.family;strokeColor=none;fillColor=#737373;shadow=0;sketch=0;rounded=1;fontSize=22;fontColor=#666666;opacity=30;" parent="xIm1bSaZW-YQx07dGLlk-2" vertex="1">
                    <mxGeometry x="460" y="770" width="30" height="30" as="geometry"/>
                </mxCell>
                <mxCell id="xIm1bSaZW-YQx07dGLlk-38" value="" style="dashed=0;aspect=fixed;verticalLabelPosition=bottom;verticalAlign=top;align=center;shape=mxgraph.gmdl.family;strokeColor=none;fillColor=#737373;shadow=0;sketch=0;rounded=1;fontSize=22;fontColor=#666666;opacity=30;" parent="xIm1bSaZW-YQx07dGLlk-2" vertex="1">
                    <mxGeometry x="460" y="600" width="30" height="30" as="geometry"/>
                </mxCell>
                <mxCell id="xIm1bSaZW-YQx07dGLlk-39" value="" style="dashed=0;aspect=fixed;verticalLabelPosition=bottom;verticalAlign=top;align=center;shape=mxgraph.gmdl.family;strokeColor=none;fillColor=#737373;shadow=0;sketch=0;rounded=1;fontSize=22;fontColor=#666666;opacity=30;" parent="xIm1bSaZW-YQx07dGLlk-2" vertex="1">
                    <mxGeometry x="470" y="430" width="30" height="30" as="geometry"/>
                </mxCell>
                <mxCell id="xIm1bSaZW-YQx07dGLlk-40" value="&lt;font style=&quot;font-size: 30px;&quot;&gt;Where are you looking to 'go'&lt;/font&gt;" style="text;strokeColor=none;fillColor=none;html=1;fontSize=24;fontStyle=1;verticalAlign=middle;align=center;rounded=1;shadow=1;fontColor=#666666;opacity=30;" parent="xIm1bSaZW-YQx07dGLlk-2" vertex="1">
                    <mxGeometry x="90" y="140" width="390" height="30" as="geometry"/>
                </mxCell>
                <mxCell id="xIm1bSaZW-YQx07dGLlk-41" value="" style="rounded=1;whiteSpace=wrap;html=1;shadow=1;fontSize=30;fontColor=#666666;fillColor=#BAC8D3;opacity=30;" parent="xIm1bSaZW-YQx07dGLlk-2" vertex="1">
                    <mxGeometry x="80" y="300" width="70" height="30" as="geometry"/>
                </mxCell>
                <mxCell id="xIm1bSaZW-YQx07dGLlk-42" value="" style="rounded=1;whiteSpace=wrap;html=1;shadow=1;fontSize=30;fontColor=#666666;fillColor=#BAC8D3;opacity=30;" parent="xIm1bSaZW-YQx07dGLlk-2" vertex="1">
                    <mxGeometry x="170" y="300" width="70" height="30" as="geometry"/>
                </mxCell>
                <mxCell id="xIm1bSaZW-YQx07dGLlk-43" value="" style="rounded=1;whiteSpace=wrap;html=1;shadow=1;fontSize=30;fontColor=#666666;fillColor=#BAC8D3;opacity=30;" parent="xIm1bSaZW-YQx07dGLlk-2" vertex="1">
                    <mxGeometry x="260" y="300" width="70" height="30" as="geometry"/>
                </mxCell>
                <mxCell id="xIm1bSaZW-YQx07dGLlk-44" value="" style="rounded=1;whiteSpace=wrap;html=1;shadow=1;fontSize=30;fontColor=#666666;fillColor=#BAC8D3;opacity=30;" parent="xIm1bSaZW-YQx07dGLlk-2" vertex="1">
                    <mxGeometry x="350" y="300" width="70" height="30" as="geometry"/>
                </mxCell>
                <mxCell id="xIm1bSaZW-YQx07dGLlk-45" value="&lt;b&gt;T4T P&lt;/b&gt;" style="text;html=1;strokeColor=none;fillColor=none;align=center;verticalAlign=middle;whiteSpace=wrap;rounded=0;shadow=1;fontSize=30;fontColor=#666666;opacity=30;" parent="xIm1bSaZW-YQx07dGLlk-2" vertex="1">
                    <mxGeometry x="80" y="30" width="160" height="30" as="geometry"/>
                </mxCell>
                <mxCell id="xIm1bSaZW-YQx07dGLlk-46" value="&lt;font style=&quot;font-size: 24px;&quot;&gt;About&lt;/font&gt;" style="text;html=1;strokeColor=none;fillColor=none;align=center;verticalAlign=middle;whiteSpace=wrap;rounded=0;shadow=1;fontSize=30;fontColor=#666666;opacity=30;" parent="xIm1bSaZW-YQx07dGLlk-2" vertex="1">
                    <mxGeometry x="490" y="30" width="60" height="30" as="geometry"/>
                </mxCell>
                <mxCell id="xIm1bSaZW-YQx07dGLlk-47" value="" style="rounded=1;whiteSpace=wrap;html=1;shadow=1;fontSize=24;fontColor=#666666;fillColor=#BAC8D3;opacity=30;" parent="xIm1bSaZW-YQx07dGLlk-2" vertex="1">
                    <mxGeometry x="820" y="210" width="730" height="820" as="geometry"/>
                </mxCell>
                <mxCell id="xIm1bSaZW-YQx07dGLlk-48" value="Filler image to be replaced with map if time allows&lt;br&gt;" style="text;html=1;strokeColor=none;fillColor=none;align=center;verticalAlign=middle;whiteSpace=wrap;rounded=0;shadow=1;fontSize=24;fontColor=#666666;opacity=30;" parent="xIm1bSaZW-YQx07dGLlk-2" vertex="1">
                    <mxGeometry x="1025" y="560" width="320" height="30" as="geometry"/>
                </mxCell>
                <mxCell id="xIm1bSaZW-YQx07dGLlk-49" value="&lt;font style=&quot;font-size: 20px;&quot;&gt;Filter&lt;/font&gt;" style="text;html=1;strokeColor=none;fillColor=none;align=center;verticalAlign=middle;whiteSpace=wrap;rounded=0;shadow=1;fontSize=24;fontColor=#666666;opacity=30;" parent="xIm1bSaZW-YQx07dGLlk-2" vertex="1">
                    <mxGeometry x="85" y="300" width="60" height="30" as="geometry"/>
                </mxCell>
                <mxCell id="xIm1bSaZW-YQx07dGLlk-50" value="&lt;font style=&quot;font-size: 20px;&quot;&gt;Filter&lt;/font&gt;" style="text;html=1;strokeColor=none;fillColor=none;align=center;verticalAlign=middle;whiteSpace=wrap;rounded=0;shadow=1;fontSize=24;fontColor=#666666;opacity=30;" parent="xIm1bSaZW-YQx07dGLlk-2" vertex="1">
                    <mxGeometry x="175" y="300" width="60" height="30" as="geometry"/>
                </mxCell>
                <mxCell id="xIm1bSaZW-YQx07dGLlk-91" value="&lt;font style=&quot;font-size: 20px;&quot;&gt;Filter&lt;/font&gt;" style="text;html=1;strokeColor=none;fillColor=none;align=center;verticalAlign=middle;whiteSpace=wrap;rounded=0;shadow=1;fontSize=24;fontColor=#666666;opacity=30;" parent="xIm1bSaZW-YQx07dGLlk-2" vertex="1">
                    <mxGeometry x="265" y="300" width="60" height="30" as="geometry"/>
                </mxCell>
                <mxCell id="xIm1bSaZW-YQx07dGLlk-92" value="&lt;font style=&quot;font-size: 20px;&quot;&gt;Filter&lt;/font&gt;" style="text;html=1;strokeColor=none;fillColor=none;align=center;verticalAlign=middle;whiteSpace=wrap;rounded=0;shadow=1;fontSize=24;fontColor=#666666;opacity=30;" parent="xIm1bSaZW-YQx07dGLlk-2" vertex="1">
                    <mxGeometry x="355" y="300" width="60" height="30" as="geometry"/>
                </mxCell>
            </root>
        </mxGraphModel>
    </diagram>
    <diagram id="Gmozn2u47LCkQs3QTo-9" name="After-Click">
        <mxGraphModel dx="3135" dy="2570" grid="1" gridSize="10" guides="1" tooltips="1" connect="1" arrows="1" fold="1" page="1" pageScale="1" pageWidth="1600" pageHeight="1200" math="0" shadow="0">
            <root>
                <mxCell id="0"/>
                <mxCell id="1" parent="0"/>
                <mxCell id="ysPyZRoe9S3RdsyrgTuX-1" value="" style="swimlane;whiteSpace=wrap;html=1;startSize=90;" parent="1" vertex="1">
                    <mxGeometry y="-5" width="1600" height="1210" as="geometry"/>
                </mxCell>
                <mxCell id="ysPyZRoe9S3RdsyrgTuX-3" value="" style="rounded=1;whiteSpace=wrap;html=1;shadow=1;strokeColor=none;" parent="ysPyZRoe9S3RdsyrgTuX-1" vertex="1">
                    <mxGeometry x="80" y="280" width="640" height="490" as="geometry"/>
                </mxCell>
                <mxCell id="ysPyZRoe9S3RdsyrgTuX-11" value="&lt;b&gt;&lt;font color=&quot;#666666&quot; style=&quot;font-size: 22px;&quot;&gt;Location Name&lt;/font&gt;&lt;/b&gt;" style="text;html=1;strokeColor=none;fillColor=none;align=center;verticalAlign=middle;whiteSpace=wrap;rounded=0;" parent="ysPyZRoe9S3RdsyrgTuX-1" vertex="1">
                    <mxGeometry x="130" y="320" width="170" height="30" as="geometry"/>
                </mxCell>
                <mxCell id="ysPyZRoe9S3RdsyrgTuX-20" value="" style="dashed=0;aspect=fixed;verticalLabelPosition=bottom;verticalAlign=top;align=center;shape=mxgraph.gmdl.navigate;strokeColor=none;fillColor=#737373;shadow=0;sketch=0;rounded=1;fontSize=22;fontColor=#666666;opacity=30;" parent="ysPyZRoe9S3RdsyrgTuX-1" vertex="1">
                    <mxGeometry x="340" y="395" width="45" height="45" as="geometry"/>
                </mxCell>
                <mxCell id="ysPyZRoe9S3RdsyrgTuX-24" value="" style="dashed=0;aspect=fixed;verticalLabelPosition=bottom;verticalAlign=top;align=center;shape=mxgraph.gmdl.health;strokeColor=none;fillColor=#737373;shadow=0;sketch=0;rounded=1;fontSize=22;fontColor=#666666;opacity=30;" parent="ysPyZRoe9S3RdsyrgTuX-1" vertex="1">
                    <mxGeometry x="500" y="395" width="50" height="45" as="geometry"/>
                </mxCell>
                <mxCell id="ysPyZRoe9S3RdsyrgTuX-29" value="" style="dashed=0;aspect=fixed;verticalLabelPosition=bottom;verticalAlign=top;align=center;shape=mxgraph.gmdl.family;strokeColor=none;fillColor=#737373;shadow=0;sketch=0;rounded=1;fontSize=22;fontColor=#666666;opacity=30;" parent="ysPyZRoe9S3RdsyrgTuX-1" vertex="1">
                    <mxGeometry x="135" y="475" width="50" height="50" as="geometry"/>
                </mxCell>
                <mxCell id="ysPyZRoe9S3RdsyrgTuX-30" value="&lt;span style=&quot;font-size: 30px;&quot;&gt;5555 Happy St, Happy Town, 0000&lt;/span&gt;" style="text;strokeColor=none;fillColor=none;html=1;fontSize=24;fontStyle=1;verticalAlign=middle;align=center;rounded=1;shadow=1;fontColor=#666666;opacity=30;" parent="ysPyZRoe9S3RdsyrgTuX-1" vertex="1">
                    <mxGeometry x="110" y="210" width="520" height="30" as="geometry"/>
                </mxCell>
                <mxCell id="ysPyZRoe9S3RdsyrgTuX-35" value="&lt;b&gt;T4T P&lt;/b&gt;" style="text;html=1;strokeColor=none;fillColor=none;align=center;verticalAlign=middle;whiteSpace=wrap;rounded=0;shadow=1;fontSize=30;fontColor=#666666;opacity=30;" parent="ysPyZRoe9S3RdsyrgTuX-1" vertex="1">
                    <mxGeometry x="80" y="30" width="160" height="30" as="geometry"/>
                </mxCell>
                <mxCell id="ysPyZRoe9S3RdsyrgTuX-36" value="&lt;font style=&quot;font-size: 24px;&quot;&gt;About&lt;/font&gt;" style="text;html=1;strokeColor=none;fillColor=none;align=center;verticalAlign=middle;whiteSpace=wrap;rounded=0;shadow=1;fontSize=30;fontColor=#666666;opacity=30;" parent="ysPyZRoe9S3RdsyrgTuX-1" vertex="1">
                    <mxGeometry x="490" y="30" width="60" height="30" as="geometry"/>
                </mxCell>
                <mxCell id="ysPyZRoe9S3RdsyrgTuX-37" value="" style="rounded=1;whiteSpace=wrap;html=1;shadow=1;fontSize=24;fillColor=#fff2cc;opacity=30;strokeColor=#d6b656;" parent="ysPyZRoe9S3RdsyrgTuX-1" vertex="1">
                    <mxGeometry x="820" y="210" width="730" height="820" as="geometry"/>
                </mxCell>
                <mxCell id="ysPyZRoe9S3RdsyrgTuX-38" value="Card location image here&lt;br&gt;" style="text;html=1;strokeColor=none;fillColor=none;align=center;verticalAlign=middle;whiteSpace=wrap;rounded=0;shadow=1;fontSize=24;fontColor=#666666;opacity=30;" parent="ysPyZRoe9S3RdsyrgTuX-1" vertex="1">
                    <mxGeometry x="1025" y="560" width="320" height="30" as="geometry"/>
                </mxCell>
                <mxCell id="ROt0Lzf6dnijYsaMBsIA-1" value="" style="html=1;verticalLabelPosition=bottom;align=center;labelBackgroundColor=#ffffff;verticalAlign=top;strokeWidth=2;strokeColor=#0080F0;shadow=0;dashed=0;shape=mxgraph.ios7.icons.looking_glass;rounded=1;fontSize=30;fontColor=#000000;fillColor=#BAC8D3;opacity=40;" parent="ysPyZRoe9S3RdsyrgTuX-1" vertex="1">
                    <mxGeometry x="80" y="210" width="30" height="30" as="geometry"/>
                </mxCell>
                <mxCell id="7HMGrRX0w16bEh8Fz_tt-1" value="&lt;font color=&quot;#4d4d4d&quot; style=&quot;font-size: 18px;&quot;&gt;Location element&lt;/font&gt;" style="shape=note;whiteSpace=wrap;html=1;backgroundOutline=1;darkOpacity=0.05;rounded=1;shadow=1;dashed=1;strokeColor=#666666;strokeWidth=3;fontSize=22;fontColor=#333333;fillColor=#f5f5f5;opacity=40;" parent="ysPyZRoe9S3RdsyrgTuX-1" vertex="1">
                    <mxGeometry x="660" y="265" width="80" height="100" as="geometry"/>
                </mxCell>
                <mxCell id="zHbGOn-O1DNBffokwGXf-1" value="" style="verticalLabelPosition=bottom;verticalAlign=top;html=1;shape=mxgraph.basic.tick;rounded=1;shadow=1;dashed=1;strokeColor=none;strokeWidth=3;fontSize=18;fontColor=#4D4D4D;fillColor=#BAC8D3;opacity=40;" parent="ysPyZRoe9S3RdsyrgTuX-1" vertex="1">
                    <mxGeometry x="140" y="390" width="55" height="55" as="geometry"/>
                </mxCell>
                <mxCell id="zHbGOn-O1DNBffokwGXf-2" value="&lt;b&gt;&lt;font color=&quot;#808080&quot;&gt;Approved&lt;/font&gt;&lt;/b&gt;" style="text;html=1;strokeColor=none;fillColor=none;align=center;verticalAlign=middle;whiteSpace=wrap;rounded=0;shadow=1;dashed=1;strokeWidth=3;fontSize=18;fontColor=#4D4D4D;opacity=40;" parent="ysPyZRoe9S3RdsyrgTuX-1" vertex="1">
                    <mxGeometry x="200" y="402.5" width="90" height="30" as="geometry"/>
                </mxCell>
                <mxCell id="zHbGOn-O1DNBffokwGXf-3" value="&lt;b&gt;15.1m&lt;/b&gt;" style="text;html=1;strokeColor=none;fillColor=none;align=center;verticalAlign=middle;whiteSpace=wrap;rounded=0;shadow=1;dashed=1;strokeWidth=3;fontSize=18;fontColor=#808080;opacity=40;" parent="ysPyZRoe9S3RdsyrgTuX-1" vertex="1">
                    <mxGeometry x="400" y="402.5" width="60" height="30" as="geometry"/>
                </mxCell>
                <mxCell id="zHbGOn-O1DNBffokwGXf-5" value="&lt;b&gt;Unisex&lt;/b&gt;" style="text;html=1;strokeColor=none;fillColor=none;align=center;verticalAlign=middle;whiteSpace=wrap;rounded=0;shadow=1;dashed=1;strokeWidth=3;fontSize=18;fontColor=#808080;opacity=40;" parent="ysPyZRoe9S3RdsyrgTuX-1" vertex="1">
                    <mxGeometry x="570" y="402.5" width="60" height="30" as="geometry"/>
                </mxCell>
                <mxCell id="zHbGOn-O1DNBffokwGXf-6" value="&lt;b&gt;ADA Accessible&lt;/b&gt;" style="text;html=1;strokeColor=none;fillColor=none;align=center;verticalAlign=middle;whiteSpace=wrap;rounded=0;shadow=1;dashed=1;strokeWidth=3;fontSize=18;fontColor=#808080;opacity=40;" parent="ysPyZRoe9S3RdsyrgTuX-1" vertex="1">
                    <mxGeometry x="185" y="485" width="150" height="30" as="geometry"/>
                </mxCell>
                <mxCell id="zHbGOn-O1DNBffokwGXf-7" value="" style="dashed=0;aspect=fixed;verticalLabelPosition=bottom;verticalAlign=top;align=center;shape=mxgraph.gmdl.navigate;strokeColor=none;fillColor=#737373;shadow=0;sketch=0;rounded=1;strokeWidth=3;fontSize=18;fontColor=#808080;opacity=40;" parent="ysPyZRoe9S3RdsyrgTuX-1" vertex="1">
                    <mxGeometry x="130" y="605" width="50" height="50" as="geometry"/>
                </mxCell>
                <mxCell id="zHbGOn-O1DNBffokwGXf-8" value="Random written directions to find the bathroom inside the establishment" style="text;html=1;strokeColor=none;fillColor=none;align=center;verticalAlign=middle;whiteSpace=wrap;rounded=0;shadow=1;dashed=1;strokeWidth=3;fontSize=18;fontColor=#808080;opacity=40;" parent="ysPyZRoe9S3RdsyrgTuX-1" vertex="1">
                    <mxGeometry x="185" y="585" width="320" height="90" as="geometry"/>
                </mxCell>
                <mxCell id="4-PsMf9kol0kE90LQbQs-1" value="" style="rounded=1;whiteSpace=wrap;html=1;shadow=1;dashed=1;strokeWidth=3;fontSize=18;fillColor=#f5f5f5;fontColor=#333333;strokeColor=#666666;" parent="ysPyZRoe9S3RdsyrgTuX-1" vertex="1">
                    <mxGeometry x="80" y="845" width="640" height="60" as="geometry"/>
                </mxCell>
                <mxCell id="4-PsMf9kol0kE90LQbQs-2" value="&lt;b&gt;&lt;font style=&quot;font-size: 22px;&quot;&gt;Go Home&lt;/font&gt;&lt;/b&gt;" style="text;html=1;strokeColor=none;fillColor=none;align=center;verticalAlign=middle;whiteSpace=wrap;rounded=0;shadow=1;dashed=1;strokeWidth=3;fontSize=18;fontColor=#808080;" parent="ysPyZRoe9S3RdsyrgTuX-1" vertex="1">
                    <mxGeometry x="345" y="860" width="110" height="30" as="geometry"/>
                </mxCell>
                <mxCell id="jWCSkNhtfiOWI-ijryWI-1" value="&lt;font color=&quot;#4d4d4d&quot; style=&quot;font-size: 18px;&quot;&gt;Map Element&lt;/font&gt;" style="shape=note;whiteSpace=wrap;html=1;backgroundOutline=1;darkOpacity=0.05;rounded=1;shadow=1;dashed=1;strokeColor=#666666;strokeWidth=3;fontSize=22;fontColor=#333333;fillColor=#f5f5f5;opacity=40;" parent="ysPyZRoe9S3RdsyrgTuX-1" vertex="1">
                    <mxGeometry x="1450" y="180" width="80" height="100" as="geometry"/>
                </mxCell>
            </root>
        </mxGraphModel>
    </diagram>
    <diagram id="USUPLHMY4oeIq3D3k6EI" name="Components">
        <mxGraphModel dx="1698" dy="356" grid="1" gridSize="10" guides="1" tooltips="1" connect="1" arrows="1" fold="1" page="1" pageScale="1" pageWidth="1200" pageHeight="1600" math="0" shadow="0">
            <root>
                <mxCell id="0"/>
                <mxCell id="1" parent="0"/>
                <mxCell id="lZnoLkiW9fNduKa8fgkK-1" value="" style="swimlane;whiteSpace=wrap;html=1;startSize=90;" parent="1" vertex="1">
                    <mxGeometry width="1600" height="1435" as="geometry"/>
                </mxCell>
                <mxCell id="lZnoLkiW9fNduKa8fgkK-2" value="Search" style="strokeWidth=1;shadow=1;dashed=0;align=center;html=1;shape=mxgraph.mockup.forms.searchBox;strokeColor=#23445d;mainText=;strokeColor2=#008cff;fontSize=17;align=left;spacingLeft=3;fillColor=#BAC8D3;opacity=10;" parent="lZnoLkiW9fNduKa8fgkK-1" vertex="1">
                    <mxGeometry x="80" y="210" width="640" height="70" as="geometry"/>
                </mxCell>
                <mxCell id="lZnoLkiW9fNduKa8fgkK-3" value="" style="rounded=1;whiteSpace=wrap;html=1;shadow=1;strokeColor=#666666;fillColor=#f5f5f5;fontColor=#333333;opacity=30;" parent="lZnoLkiW9fNduKa8fgkK-1" vertex="1">
                    <mxGeometry x="80" y="370" width="640" height="150" as="geometry"/>
                </mxCell>
                <mxCell id="lZnoLkiW9fNduKa8fgkK-4" value="" style="rounded=1;whiteSpace=wrap;html=1;shadow=1;strokeColor=#666666;fillColor=#f5f5f5;fontColor=#333333;opacity=30;" parent="lZnoLkiW9fNduKa8fgkK-1" vertex="1">
                    <mxGeometry x="80" y="540" width="640" height="150" as="geometry"/>
                </mxCell>
                <mxCell id="lZnoLkiW9fNduKa8fgkK-5" value="" style="rounded=1;whiteSpace=wrap;html=1;shadow=1;strokeColor=#666666;fillColor=#f5f5f5;fontColor=#333333;opacity=30;" parent="lZnoLkiW9fNduKa8fgkK-1" vertex="1">
                    <mxGeometry x="80" y="710" width="640" height="150" as="geometry"/>
                </mxCell>
                <mxCell id="lZnoLkiW9fNduKa8fgkK-6" value="" style="rounded=1;whiteSpace=wrap;html=1;shadow=1;strokeColor=#666666;fillColor=#f5f5f5;fontColor=#333333;opacity=30;" parent="lZnoLkiW9fNduKa8fgkK-1" vertex="1">
                    <mxGeometry x="80" y="880" width="640" height="150" as="geometry"/>
                </mxCell>
                <mxCell id="lZnoLkiW9fNduKa8fgkK-7" value="" style="rounded=1;whiteSpace=wrap;html=1;fillColor=#f5f5f5;strokeColor=#666666;fontColor=#333333;opacity=30;" parent="lZnoLkiW9fNduKa8fgkK-1" vertex="1">
                    <mxGeometry x="80" y="540" width="160" height="150" as="geometry"/>
                </mxCell>
                <mxCell id="lZnoLkiW9fNduKa8fgkK-8" value="" style="rounded=1;whiteSpace=wrap;html=1;fillColor=#f5f5f5;fontColor=#333333;strokeColor=#666666;opacity=30;" parent="lZnoLkiW9fNduKa8fgkK-1" vertex="1">
                    <mxGeometry x="80" y="370" width="160" height="150" as="geometry"/>
                </mxCell>
                <mxCell id="lZnoLkiW9fNduKa8fgkK-9" value="" style="rounded=1;whiteSpace=wrap;html=1;fillColor=#f5f5f5;strokeColor=#666666;fontColor=#333333;opacity=30;" parent="lZnoLkiW9fNduKa8fgkK-1" vertex="1">
                    <mxGeometry x="80" y="710" width="160" height="150" as="geometry"/>
                </mxCell>
                <mxCell id="lZnoLkiW9fNduKa8fgkK-10" value="" style="rounded=1;whiteSpace=wrap;html=1;fillColor=#f5f5f5;strokeColor=#666666;shadow=0;fontColor=#333333;opacity=30;" parent="lZnoLkiW9fNduKa8fgkK-1" vertex="1">
                    <mxGeometry x="80" y="880" width="160" height="150" as="geometry"/>
                </mxCell>
                <mxCell id="lZnoLkiW9fNduKa8fgkK-11" value="&lt;b&gt;&lt;font color=&quot;#666666&quot; style=&quot;font-size: 20px;&quot;&gt;Location Name&lt;/font&gt;&lt;/b&gt;" style="text;html=1;strokeColor=none;fillColor=none;align=center;verticalAlign=middle;whiteSpace=wrap;rounded=0;" parent="lZnoLkiW9fNduKa8fgkK-1" vertex="1">
                    <mxGeometry x="270" y="390" width="150" height="30" as="geometry"/>
                </mxCell>
                <mxCell id="lZnoLkiW9fNduKa8fgkK-12" value="&lt;b&gt;&lt;font color=&quot;#666666&quot; style=&quot;font-size: 20px;&quot;&gt;Location Name&lt;/font&gt;&lt;/b&gt;" style="text;html=1;strokeColor=none;fillColor=none;align=center;verticalAlign=middle;whiteSpace=wrap;rounded=0;" parent="lZnoLkiW9fNduKa8fgkK-1" vertex="1">
                    <mxGeometry x="270" y="560" width="150" height="30" as="geometry"/>
                </mxCell>
                <mxCell id="lZnoLkiW9fNduKa8fgkK-13" value="&lt;b&gt;&lt;font color=&quot;#666666&quot; style=&quot;font-size: 20px;&quot;&gt;Location Name&lt;/font&gt;&lt;/b&gt;" style="text;html=1;strokeColor=none;fillColor=none;align=center;verticalAlign=middle;whiteSpace=wrap;rounded=0;" parent="lZnoLkiW9fNduKa8fgkK-1" vertex="1">
                    <mxGeometry x="270" y="730" width="150" height="30" as="geometry"/>
                </mxCell>
                <mxCell id="lZnoLkiW9fNduKa8fgkK-14" value="&lt;b&gt;&lt;font color=&quot;#666666&quot; style=&quot;font-size: 20px;&quot;&gt;Location Name&lt;/font&gt;&lt;/b&gt;" style="text;html=1;strokeColor=none;fillColor=none;align=center;verticalAlign=middle;whiteSpace=wrap;rounded=0;" parent="lZnoLkiW9fNduKa8fgkK-1" vertex="1">
                    <mxGeometry x="280" y="900" width="150" height="30" as="geometry"/>
                </mxCell>
                <mxCell id="lZnoLkiW9fNduKa8fgkK-15" value="" style="rounded=1;whiteSpace=wrap;html=1;shadow=1;strokeColor=#666666;fillColor=#f5f5f5;fontColor=#333333;opacity=30;" parent="lZnoLkiW9fNduKa8fgkK-1" vertex="1">
                    <mxGeometry x="80" y="1050" width="640" height="150" as="geometry"/>
                </mxCell>
                <mxCell id="lZnoLkiW9fNduKa8fgkK-16" value="" style="rounded=1;whiteSpace=wrap;html=1;fillColor=#f5f5f5;strokeColor=#666666;shadow=0;fontColor=#333333;opacity=30;" parent="lZnoLkiW9fNduKa8fgkK-1" vertex="1">
                    <mxGeometry x="80" y="1050" width="160" height="150" as="geometry"/>
                </mxCell>
                <mxCell id="lZnoLkiW9fNduKa8fgkK-17" value="&lt;font color=&quot;#666666&quot; style=&quot;font-size: 22px;&quot;&gt;Location Name&lt;/font&gt;" style="text;html=1;strokeColor=none;fillColor=none;align=center;verticalAlign=middle;whiteSpace=wrap;rounded=0;" parent="lZnoLkiW9fNduKa8fgkK-1" vertex="1">
                    <mxGeometry x="257.5" y="1070" width="195" height="30" as="geometry"/>
                </mxCell>
                <mxCell id="lZnoLkiW9fNduKa8fgkK-18" value="" style="dashed=0;aspect=fixed;verticalLabelPosition=bottom;verticalAlign=top;align=center;shape=mxgraph.gmdl.navigate;strokeColor=none;fillColor=#737373;shadow=0;sketch=0;rounded=1;fontSize=22;fontColor=#666666;opacity=30;" parent="lZnoLkiW9fNduKa8fgkK-1" vertex="1">
                    <mxGeometry x="280" y="940" width="30" height="30" as="geometry"/>
                </mxCell>
                <mxCell id="lZnoLkiW9fNduKa8fgkK-19" value="" style="dashed=0;aspect=fixed;verticalLabelPosition=bottom;verticalAlign=top;align=center;shape=mxgraph.gmdl.navigate;strokeColor=none;fillColor=#737373;shadow=0;sketch=0;rounded=1;fontSize=22;fontColor=#666666;opacity=30;" parent="lZnoLkiW9fNduKa8fgkK-1" vertex="1">
                    <mxGeometry x="270" y="770" width="30" height="30" as="geometry"/>
                </mxCell>
                <mxCell id="lZnoLkiW9fNduKa8fgkK-20" value="" style="dashed=0;aspect=fixed;verticalLabelPosition=bottom;verticalAlign=top;align=center;shape=mxgraph.gmdl.navigate;strokeColor=none;fillColor=#737373;shadow=0;sketch=0;rounded=1;fontSize=22;fontColor=#666666;opacity=30;" parent="lZnoLkiW9fNduKa8fgkK-1" vertex="1">
                    <mxGeometry x="270" y="430" width="30" height="30" as="geometry"/>
                </mxCell>
                <mxCell id="lZnoLkiW9fNduKa8fgkK-21" value="" style="dashed=0;aspect=fixed;verticalLabelPosition=bottom;verticalAlign=top;align=center;shape=mxgraph.gmdl.navigate;strokeColor=none;fillColor=#737373;shadow=0;sketch=0;rounded=1;fontSize=22;fontColor=#666666;opacity=30;" parent="lZnoLkiW9fNduKa8fgkK-1" vertex="1">
                    <mxGeometry x="270" y="600" width="30" height="30" as="geometry"/>
                </mxCell>
                <mxCell id="lZnoLkiW9fNduKa8fgkK-22" value="" style="dashed=0;aspect=fixed;verticalLabelPosition=bottom;verticalAlign=top;align=center;shape=mxgraph.gmdl.health;strokeColor=none;fillColor=#737373;shadow=0;sketch=0;rounded=1;fontSize=22;fontColor=#666666;opacity=30;" parent="lZnoLkiW9fNduKa8fgkK-1" vertex="1">
                    <mxGeometry x="370" y="770" width="33.33" height="30" as="geometry"/>
                </mxCell>
                <mxCell id="lZnoLkiW9fNduKa8fgkK-23" value="" style="dashed=0;aspect=fixed;verticalLabelPosition=bottom;verticalAlign=top;align=center;shape=mxgraph.gmdl.health;strokeColor=none;fillColor=#737373;shadow=0;sketch=0;rounded=1;fontSize=22;fontColor=#666666;opacity=30;" parent="lZnoLkiW9fNduKa8fgkK-1" vertex="1">
                    <mxGeometry x="370" y="600" width="33.33" height="30" as="geometry"/>
                </mxCell>
                <mxCell id="lZnoLkiW9fNduKa8fgkK-24" value="" style="dashed=0;aspect=fixed;verticalLabelPosition=bottom;verticalAlign=top;align=center;shape=mxgraph.gmdl.health;strokeColor=none;fillColor=#737373;shadow=0;sketch=0;rounded=1;fontSize=22;fontColor=#666666;opacity=30;" parent="lZnoLkiW9fNduKa8fgkK-1" vertex="1">
                    <mxGeometry x="370" y="430" width="33.33" height="30" as="geometry"/>
                </mxCell>
                <mxCell id="lZnoLkiW9fNduKa8fgkK-25" value="" style="dashed=0;aspect=fixed;verticalLabelPosition=bottom;verticalAlign=top;align=center;shape=mxgraph.gmdl.health;strokeColor=none;fillColor=#737373;shadow=0;sketch=0;rounded=1;fontSize=22;fontColor=#666666;opacity=30;" parent="lZnoLkiW9fNduKa8fgkK-1" vertex="1">
                    <mxGeometry x="370" y="940" width="33.33" height="30" as="geometry"/>
                </mxCell>
                <mxCell id="lZnoLkiW9fNduKa8fgkK-26" value="" style="dashed=0;aspect=fixed;verticalLabelPosition=bottom;verticalAlign=top;align=center;shape=mxgraph.gmdl.family;strokeColor=none;fillColor=#737373;shadow=0;sketch=0;rounded=1;fontSize=22;fontColor=#666666;opacity=30;" parent="lZnoLkiW9fNduKa8fgkK-1" vertex="1">
                    <mxGeometry x="460" y="940" width="30" height="30" as="geometry"/>
                </mxCell>
                <mxCell id="lZnoLkiW9fNduKa8fgkK-27" value="" style="dashed=0;aspect=fixed;verticalLabelPosition=bottom;verticalAlign=top;align=center;shape=mxgraph.gmdl.family;strokeColor=none;fillColor=#737373;shadow=0;sketch=0;rounded=1;fontSize=22;fontColor=#666666;opacity=30;" parent="lZnoLkiW9fNduKa8fgkK-1" vertex="1">
                    <mxGeometry x="460" y="770" width="30" height="30" as="geometry"/>
                </mxCell>
                <mxCell id="lZnoLkiW9fNduKa8fgkK-28" value="" style="dashed=0;aspect=fixed;verticalLabelPosition=bottom;verticalAlign=top;align=center;shape=mxgraph.gmdl.family;strokeColor=none;fillColor=#737373;shadow=0;sketch=0;rounded=1;fontSize=22;fontColor=#666666;opacity=30;" parent="lZnoLkiW9fNduKa8fgkK-1" vertex="1">
                    <mxGeometry x="460" y="600" width="30" height="30" as="geometry"/>
                </mxCell>
                <mxCell id="lZnoLkiW9fNduKa8fgkK-29" value="" style="dashed=0;aspect=fixed;verticalLabelPosition=bottom;verticalAlign=top;align=center;shape=mxgraph.gmdl.family;strokeColor=none;fillColor=#737373;shadow=0;sketch=0;rounded=1;fontSize=22;fontColor=#666666;opacity=30;" parent="lZnoLkiW9fNduKa8fgkK-1" vertex="1">
                    <mxGeometry x="470" y="430" width="30" height="30" as="geometry"/>
                </mxCell>
                <mxCell id="lZnoLkiW9fNduKa8fgkK-30" value="&lt;font color=&quot;#cccccc&quot; style=&quot;font-size: 30px;&quot;&gt;Where are you looking to 'go'&lt;/font&gt;" style="text;strokeColor=none;fillColor=none;html=1;fontSize=24;fontStyle=1;verticalAlign=middle;align=center;rounded=1;shadow=1;fontColor=#666666;opacity=30;" parent="lZnoLkiW9fNduKa8fgkK-1" vertex="1">
                    <mxGeometry x="90" y="140" width="390" height="30" as="geometry"/>
                </mxCell>
                <mxCell id="lZnoLkiW9fNduKa8fgkK-31" value="" style="rounded=1;whiteSpace=wrap;html=1;shadow=1;fontSize=30;fontColor=#666666;fillColor=#BAC8D3;opacity=10;" parent="lZnoLkiW9fNduKa8fgkK-1" vertex="1">
                    <mxGeometry x="80" y="300" width="70" height="30" as="geometry"/>
                </mxCell>
                <mxCell id="lZnoLkiW9fNduKa8fgkK-32" value="" style="rounded=1;whiteSpace=wrap;html=1;shadow=1;fontSize=30;fontColor=#666666;fillColor=#BAC8D3;opacity=10;" parent="lZnoLkiW9fNduKa8fgkK-1" vertex="1">
                    <mxGeometry x="170" y="300" width="70" height="30" as="geometry"/>
                </mxCell>
                <mxCell id="lZnoLkiW9fNduKa8fgkK-33" value="" style="rounded=1;whiteSpace=wrap;html=1;shadow=1;fontSize=30;fontColor=#666666;fillColor=#BAC8D3;opacity=10;" parent="lZnoLkiW9fNduKa8fgkK-1" vertex="1">
                    <mxGeometry x="260" y="300" width="70" height="30" as="geometry"/>
                </mxCell>
                <mxCell id="lZnoLkiW9fNduKa8fgkK-34" value="" style="rounded=1;whiteSpace=wrap;html=1;shadow=1;fontSize=30;fontColor=#666666;fillColor=#BAC8D3;opacity=10;" parent="lZnoLkiW9fNduKa8fgkK-1" vertex="1">
                    <mxGeometry x="350" y="300" width="70" height="30" as="geometry"/>
                </mxCell>
                <mxCell id="lZnoLkiW9fNduKa8fgkK-35" value="&lt;b&gt;T4T P&lt;/b&gt;" style="text;html=1;strokeColor=none;fillColor=none;align=center;verticalAlign=middle;whiteSpace=wrap;rounded=0;shadow=1;fontSize=30;fontColor=#666666;opacity=30;" parent="lZnoLkiW9fNduKa8fgkK-1" vertex="1">
                    <mxGeometry x="80" y="30" width="160" height="30" as="geometry"/>
                </mxCell>
                <mxCell id="lZnoLkiW9fNduKa8fgkK-36" value="&lt;font style=&quot;font-size: 24px;&quot;&gt;About&lt;/font&gt;" style="text;html=1;strokeColor=none;fillColor=none;align=center;verticalAlign=middle;whiteSpace=wrap;rounded=0;shadow=1;fontSize=30;fontColor=#666666;opacity=30;" parent="lZnoLkiW9fNduKa8fgkK-1" vertex="1">
                    <mxGeometry x="490" y="30" width="60" height="30" as="geometry"/>
                </mxCell>
                <mxCell id="lZnoLkiW9fNduKa8fgkK-37" value="" style="rounded=1;whiteSpace=wrap;html=1;shadow=1;fontSize=24;fontColor=#333333;fillColor=#f5f5f5;opacity=30;strokeColor=#666666;" parent="lZnoLkiW9fNduKa8fgkK-1" vertex="1">
                    <mxGeometry x="820" y="210" width="730" height="820" as="geometry"/>
                </mxCell>
                <mxCell id="lZnoLkiW9fNduKa8fgkK-38" value="Filler image to be replaced with map if time allows&lt;br&gt;" style="text;html=1;strokeColor=none;fillColor=none;align=center;verticalAlign=middle;whiteSpace=wrap;rounded=0;shadow=1;fontSize=24;fontColor=#666666;opacity=30;" parent="lZnoLkiW9fNduKa8fgkK-1" vertex="1">
                    <mxGeometry x="1025" y="560" width="320" height="30" as="geometry"/>
                </mxCell>
                <mxCell id="lZnoLkiW9fNduKa8fgkK-39" value="&lt;font color=&quot;#cccccc&quot; style=&quot;font-size: 20px;&quot;&gt;Filter&lt;/font&gt;" style="text;html=1;strokeColor=none;fillColor=none;align=center;verticalAlign=middle;whiteSpace=wrap;rounded=0;shadow=1;fontSize=24;fontColor=#666666;opacity=10;" parent="lZnoLkiW9fNduKa8fgkK-1" vertex="1">
                    <mxGeometry x="85" y="300" width="60" height="30" as="geometry"/>
                </mxCell>
                <mxCell id="lZnoLkiW9fNduKa8fgkK-40" value="&lt;font color=&quot;#cccccc&quot; style=&quot;font-size: 20px;&quot;&gt;Filter&lt;/font&gt;" style="text;html=1;strokeColor=none;fillColor=none;align=center;verticalAlign=middle;whiteSpace=wrap;rounded=0;shadow=1;fontSize=24;fontColor=#666666;opacity=10;" parent="lZnoLkiW9fNduKa8fgkK-1" vertex="1">
                    <mxGeometry x="175" y="300" width="60" height="30" as="geometry"/>
                </mxCell>
                <mxCell id="lZnoLkiW9fNduKa8fgkK-41" value="&lt;font style=&quot;font-size: 20px;&quot;&gt;Filter&lt;/font&gt;" style="text;html=1;strokeColor=none;fillColor=none;align=center;verticalAlign=middle;whiteSpace=wrap;rounded=0;shadow=1;fontSize=24;fontColor=#666666;opacity=10;" parent="lZnoLkiW9fNduKa8fgkK-1" vertex="1">
                    <mxGeometry x="265" y="300" width="60" height="30" as="geometry"/>
                </mxCell>
                <mxCell id="lZnoLkiW9fNduKa8fgkK-42" value="&lt;font style=&quot;font-size: 20px;&quot;&gt;Filter&lt;/font&gt;" style="text;html=1;strokeColor=none;fillColor=none;align=center;verticalAlign=middle;whiteSpace=wrap;rounded=0;shadow=1;fontSize=24;fontColor=#666666;opacity=10;" parent="lZnoLkiW9fNduKa8fgkK-1" vertex="1">
                    <mxGeometry x="355" y="300" width="60" height="30" as="geometry"/>
                </mxCell>
                <mxCell id="etckC9ivUIE6XQqud9nu-1" value="" style="rounded=0;whiteSpace=wrap;html=1;shadow=1;fontSize=20;fillColor=#f8cecc;opacity=40;dashed=1;strokeWidth=3;strokeColor=#b85450;" parent="lZnoLkiW9fNduKa8fgkK-1" vertex="1">
                    <mxGeometry y="190" width="760" height="100" as="geometry"/>
                </mxCell>
                <mxCell id="etckC9ivUIE6XQqud9nu-2" value="&lt;font size=&quot;1&quot; color=&quot;#000000&quot;&gt;&lt;b style=&quot;font-size: 24px;&quot;&gt;Search Component&lt;/b&gt;&lt;/font&gt;" style="text;html=1;strokeColor=none;fillColor=none;align=center;verticalAlign=middle;whiteSpace=wrap;rounded=0;shadow=1;dashed=1;fontSize=20;fontColor=#CCCCCC;opacity=40;" parent="lZnoLkiW9fNduKa8fgkK-1" vertex="1">
                    <mxGeometry x="190" y="225" width="330" height="30" as="geometry"/>
                </mxCell>
                <mxCell id="etckC9ivUIE6XQqud9nu-3" value="" style="rounded=0;whiteSpace=wrap;html=1;shadow=1;fontSize=20;fillColor=#fff2cc;opacity=40;dashed=1;strokeColor=#d6b656;strokeWidth=3;" parent="lZnoLkiW9fNduKa8fgkK-1" vertex="1">
                    <mxGeometry y="360" width="760" height="1075" as="geometry"/>
                </mxCell>
                <mxCell id="etckC9ivUIE6XQqud9nu-4" value="&lt;b&gt;&lt;font style=&quot;font-size: 30px;&quot;&gt;Locations&lt;/font&gt;&lt;/b&gt;" style="text;html=1;strokeColor=none;fillColor=none;align=center;verticalAlign=middle;whiteSpace=wrap;rounded=0;shadow=1;dashed=1;fontSize=24;fontColor=#000000;opacity=40;" parent="lZnoLkiW9fNduKa8fgkK-1" vertex="1">
                    <mxGeometry x="260" y="650" width="170" height="30" as="geometry"/>
                </mxCell>
                <mxCell id="etckC9ivUIE6XQqud9nu-5" value="" style="rounded=0;whiteSpace=wrap;html=1;shadow=1;fontSize=20;fillColor=#ffe6cc;opacity=40;dashed=1;strokeWidth=3;strokeColor=#d79b00;" parent="lZnoLkiW9fNduKa8fgkK-1" vertex="1">
                    <mxGeometry y="290" width="760" height="70" as="geometry"/>
                </mxCell>
                <mxCell id="etckC9ivUIE6XQqud9nu-6" value="" style="rounded=0;whiteSpace=wrap;html=1;shadow=1;fontSize=20;fillColor=#d5e8d4;opacity=40;dashed=1;strokeColor=#82b366;strokeWidth=3;" parent="lZnoLkiW9fNduKa8fgkK-1" vertex="1">
                    <mxGeometry x="770" y="90" width="830" height="1345" as="geometry"/>
                </mxCell>
                <mxCell id="Q5zJA7gYzCyzEHp0_wYg-1" value="&lt;b&gt;&lt;font style=&quot;font-size: 30px;&quot;&gt;H2&lt;/font&gt;&lt;/b&gt;" style="rounded=0;whiteSpace=wrap;html=1;shadow=1;fontSize=20;fillColor=#f5f5f5;opacity=40;dashed=1;strokeWidth=3;strokeColor=#666666;fontColor=#333333;" parent="lZnoLkiW9fNduKa8fgkK-1" vertex="1">
                    <mxGeometry y="90" width="760" height="100" as="geometry"/>
                </mxCell>
                <mxCell id="35PLy1QCQHtUEW68Uz8b-1" value="&lt;b&gt;&lt;font color=&quot;#000000&quot;&gt;Filler/Map&lt;/font&gt;&lt;/b&gt;" style="text;html=1;strokeColor=none;fillColor=none;align=center;verticalAlign=middle;whiteSpace=wrap;rounded=0;shadow=1;strokeWidth=1;fontSize=30;fontColor=#808080;" parent="lZnoLkiW9fNduKa8fgkK-1" vertex="1">
                    <mxGeometry x="1080" y="510" width="210" height="30" as="geometry"/>
                </mxCell>
                <mxCell id="OwtVtIfylFwwC3yGHO4C-1" value="&lt;b&gt;&lt;font style=&quot;font-size: 24px;&quot;&gt;Filter&lt;/font&gt;&lt;/b&gt;" style="text;html=1;strokeColor=none;fillColor=none;align=center;verticalAlign=middle;whiteSpace=wrap;rounded=0;" parent="lZnoLkiW9fNduKa8fgkK-1" vertex="1">
                    <mxGeometry x="325" y="310" width="60" height="30" as="geometry"/>
                </mxCell>
            </root>
        </mxGraphModel>
    </diagram>
    <diagram id="-yvuuItQF6G6jqqR7k9Y" name="Architecture">
        <mxGraphModel dx="498" dy="356" grid="1" gridSize="10" guides="1" tooltips="1" connect="1" arrows="1" fold="1" page="1" pageScale="1" pageWidth="1200" pageHeight="1600" math="0" shadow="0">
            <root>
                <mxCell id="0"/>
                <mxCell id="1" parent="0"/>
                <mxCell id="QylPHTEz8gwhGYtyg14A-1" value="App" style="rounded=1;whiteSpace=wrap;html=1;shadow=1;strokeColor=#666666;strokeWidth=1;fontSize=22;fontColor=#333333;fillColor=#f5f5f5;" parent="1" vertex="1">
                    <mxGeometry x="480" y="80" width="210" height="110" as="geometry"/>
                </mxCell>
                <mxCell id="QylPHTEz8gwhGYtyg14A-2" value="Landing Page" style="rounded=1;whiteSpace=wrap;html=1;shadow=1;strokeColor=#666666;strokeWidth=1;fontSize=22;fontColor=#333333;fillColor=#f5f5f5;" parent="1" vertex="1">
                    <mxGeometry x="310" y="240" width="210" height="110" as="geometry"/>
                </mxCell>
                <mxCell id="v9xQ6sEbahU0GC0a2fub-1" value="Error Page" style="rounded=1;whiteSpace=wrap;html=1;shadow=1;strokeColor=#666666;strokeWidth=1;fontSize=22;fontColor=#333333;fillColor=#f5f5f5;" parent="1" vertex="1">
                    <mxGeometry x="930" y="240" width="210" height="110" as="geometry"/>
                </mxCell>
                <mxCell id="v9xQ6sEbahU0GC0a2fub-2" value="About" style="rounded=1;whiteSpace=wrap;html=1;shadow=1;strokeColor=#666666;strokeWidth=1;fontSize=22;fontColor=#333333;fillColor=#f5f5f5;" parent="1" vertex="1">
                    <mxGeometry x="660" y="240" width="210" height="110" as="geometry"/>
                </mxCell>
                <mxCell id="v9xQ6sEbahU0GC0a2fub-3" value="Search" style="rounded=1;whiteSpace=wrap;html=1;shadow=1;strokeColor=#666666;strokeWidth=1;fontSize=22;fontColor=#333333;fillColor=#f5f5f5;" parent="1" vertex="1">
                    <mxGeometry x="150" y="440" width="180" height="90" as="geometry"/>
                </mxCell>
                <mxCell id="Jc88gICvIzojjYAUtCQe-5" value="" style="edgeStyle=none;html=1;fontSize=22;fontColor=#808080;" parent="1" source="9GHtJTlipK2TbZPjuhb0-1" target="Cec-U0t_je0lU07pagh8-1" edge="1">
                    <mxGeometry relative="1" as="geometry"/>
                </mxCell>
                <mxCell id="9GHtJTlipK2TbZPjuhb0-1" value="Filter" style="rounded=1;whiteSpace=wrap;html=1;shadow=1;strokeColor=#666666;strokeWidth=1;fontSize=22;fontColor=#333333;fillColor=#f5f5f5;" parent="1" vertex="1">
                    <mxGeometry x="330" y="590" width="180" height="90" as="geometry"/>
                </mxCell>
                <mxCell id="Cec-U0t_je0lU07pagh8-1" value="Locations" style="rounded=1;whiteSpace=wrap;html=1;shadow=1;strokeColor=#666666;strokeWidth=1;fontSize=22;fontColor=#333333;fillColor=#f5f5f5;" parent="1" vertex="1">
                    <mxGeometry x="40" y="590" width="180" height="90" as="geometry"/>
                </mxCell>
                <mxCell id="AQdtg8ppUQKWMjS3mWDr-1" value="" style="endArrow=classic;html=1;fontSize=22;fontColor=#808080;" parent="1" edge="1">
                    <mxGeometry width="50" height="50" relative="1" as="geometry">
                        <mxPoint x="470" y="140" as="sourcePoint"/>
                        <mxPoint x="410" y="200" as="targetPoint"/>
                        <Array as="points">
                            <mxPoint x="410" y="140"/>
                        </Array>
                    </mxGeometry>
                </mxCell>
                <mxCell id="AQdtg8ppUQKWMjS3mWDr-3" value="" style="endArrow=classic;html=1;fontSize=22;fontColor=#808080;" parent="1" edge="1">
                    <mxGeometry width="50" height="50" relative="1" as="geometry">
                        <mxPoint x="130" y="490" as="sourcePoint"/>
                        <mxPoint x="90" y="570" as="targetPoint"/>
                        <Array as="points">
                            <mxPoint x="90" y="490"/>
                        </Array>
                    </mxGeometry>
                </mxCell>
                <mxCell id="AQdtg8ppUQKWMjS3mWDr-5" value="" style="endArrow=classic;html=1;fontSize=22;fontColor=#808080;" parent="1" edge="1">
                    <mxGeometry width="50" height="50" relative="1" as="geometry">
                        <mxPoint x="260" y="634.09" as="sourcePoint"/>
                        <mxPoint x="320" y="634.09" as="targetPoint"/>
                    </mxGeometry>
                </mxCell>
                <mxCell id="AQdtg8ppUQKWMjS3mWDr-6" value="" style="endArrow=classic;html=1;fontSize=22;fontColor=#808080;" parent="1" edge="1">
                    <mxGeometry width="50" height="50" relative="1" as="geometry">
                        <mxPoint x="140.00000000000006" y="700" as="sourcePoint"/>
                        <mxPoint x="830" y="810" as="targetPoint"/>
                        <Array as="points">
                            <mxPoint x="140" y="810"/>
                        </Array>
                    </mxGeometry>
                </mxCell>
                <mxCell id="AQdtg8ppUQKWMjS3mWDr-7" value="After-Click" style="rounded=1;whiteSpace=wrap;html=1;shadow=1;strokeColor=#666666;strokeWidth=1;fontSize=22;fontColor=#333333;fillColor=#f5f5f5;" parent="1" vertex="1">
                    <mxGeometry x="850" y="750" width="210" height="110" as="geometry"/>
                </mxCell>
                <mxCell id="AQdtg8ppUQKWMjS3mWDr-8" value="Locations Component" style="rounded=1;whiteSpace=wrap;html=1;shadow=1;strokeColor=#666666;strokeWidth=1;fontSize=22;fontColor=#333333;fillColor=#f5f5f5;" parent="1" vertex="1">
                    <mxGeometry x="720" y="940" width="180" height="90" as="geometry"/>
                </mxCell>
                <mxCell id="Jc88gICvIzojjYAUtCQe-1" value="Filler/Map" style="rounded=1;whiteSpace=wrap;html=1;shadow=1;strokeColor=#666666;strokeWidth=1;fontSize=22;fontColor=#333333;fillColor=#f5f5f5;" parent="1" vertex="1">
                    <mxGeometry x="495" y="440" width="180" height="90" as="geometry"/>
                </mxCell>
                <mxCell id="Jc88gICvIzojjYAUtCQe-2" value="" style="endArrow=classic;html=1;fontSize=22;fontColor=#808080;" parent="1" edge="1">
                    <mxGeometry width="50" height="50" relative="1" as="geometry">
                        <mxPoint x="420" y="370" as="sourcePoint"/>
                        <mxPoint x="550" y="420" as="targetPoint"/>
                    </mxGeometry>
                </mxCell>
                <mxCell id="Jc88gICvIzojjYAUtCQe-4" value="" style="endArrow=classic;html=1;fontSize=22;fontColor=#808080;" parent="1" edge="1">
                    <mxGeometry width="50" height="50" relative="1" as="geometry">
                        <mxPoint x="410" y="370" as="sourcePoint"/>
                        <mxPoint x="260" y="420" as="targetPoint"/>
                    </mxGeometry>
                </mxCell>
                <mxCell id="hx4XAhxVVqLeQ4Ds78h4-1" value="Filler/Map -&amp;gt; using Locations Image" style="rounded=1;whiteSpace=wrap;html=1;shadow=1;strokeColor=#666666;strokeWidth=1;fontSize=22;fontColor=#333333;fillColor=#f5f5f5;" parent="1" vertex="1">
                    <mxGeometry x="1000" y="940" width="180" height="90" as="geometry"/>
                </mxCell>
                <mxCell id="A1HWWZHq-J7ntjac9Ys8-1" value="" style="endArrow=classic;html=1;fontSize=22;fontColor=#808080;" parent="1" edge="1">
                    <mxGeometry width="50" height="50" relative="1" as="geometry">
                        <mxPoint x="950" y="880" as="sourcePoint"/>
                        <mxPoint x="830" y="920" as="targetPoint"/>
                    </mxGeometry>
                </mxCell>
                <mxCell id="A1HWWZHq-J7ntjac9Ys8-2" value="" style="endArrow=classic;html=1;fontSize=22;fontColor=#808080;" parent="1" edge="1">
                    <mxGeometry width="50" height="50" relative="1" as="geometry">
                        <mxPoint x="960" y="880" as="sourcePoint"/>
                        <mxPoint x="1070" y="920" as="targetPoint"/>
                    </mxGeometry>
                </mxCell>
                <mxCell id="A1HWWZHq-J7ntjac9Ys8-3" value="" style="endArrow=classic;html=1;fontSize=30;fontColor=#808080;" parent="1" edge="1">
                    <mxGeometry width="50" height="50" relative="1" as="geometry">
                        <mxPoint x="710" y="140" as="sourcePoint"/>
                        <mxPoint x="760" y="210" as="targetPoint"/>
                        <Array as="points">
                            <mxPoint x="760" y="140"/>
                        </Array>
                    </mxGeometry>
                </mxCell>
                <mxCell id="A1HWWZHq-J7ntjac9Ys8-4" value="" style="endArrow=classic;html=1;fontSize=30;fontColor=#808080;" parent="1" edge="1">
                    <mxGeometry width="50" height="50" relative="1" as="geometry">
                        <mxPoint x="730" y="140" as="sourcePoint"/>
                        <mxPoint x="1040" y="220" as="targetPoint"/>
                        <Array as="points">
                            <mxPoint x="1040" y="140"/>
                        </Array>
                    </mxGeometry>
                </mxCell>
            </root>
        </mxGraphModel>
    </diagram>
</mxfile>